<svg width="119" height="23" viewBox="0 0 119 23" fill="none" xmlns="http://www.w3.org/2000/svg">
<path d="M10.5866 2.04906C10.939 1.25857 12.061 1.25857 12.4134 2.04906L14.4422 6.60046C14.5875 6.92649 14.8956 7.15034 15.2506 7.1878L20.2061 7.71083C21.0668 7.80167 21.4135 8.86877 20.7706 9.44816L17.0689 12.7841C16.8038 13.0231 16.6861 13.3853 16.7601 13.7345L17.7941 18.6091C17.9736 19.4557 17.0659 20.1152 16.3162 19.6828L11.9996 17.1932C11.6904 17.0148 11.3096 17.0148 11.0004 17.1932L6.68381 19.6828C5.93411 20.1152 5.02637 19.4557 5.20595 18.6091L6.23987 13.7345C6.31393 13.3853 6.19625 13.0231 5.93108 12.7841L2.22938 9.44816C1.58646 8.86878 1.93318 7.80167 2.79387 7.71083L7.74944 7.1878C8.10442 7.15034 8.41252 6.92649 8.55784 6.60046L10.5866 2.04906Z" fill="#FFA800"/>
<path d="M34.5866 2.04906C34.939 1.25857 36.061 1.25857 36.4134 2.04906L38.4422 6.60046C38.5875 6.92649 38.8956 7.15034 39.2506 7.1878L44.2061 7.71083C45.0668 7.80167 45.4135 8.86877 44.7706 9.44816L41.0689 12.7841C40.8038 13.0231 40.6861 13.3853 40.7601 13.7345L41.7941 18.6091C41.9736 19.4557 41.0659 20.1152 40.3162 19.6828L35.9996 17.1932C35.6904 17.0148 35.3096 17.0148 35.0004 17.1932L30.6838 19.6828C29.9341 20.1152 29.0264 19.4557 29.2059 18.6091L30.2399 13.7345C30.3139 13.3853 30.1962 13.0231 29.9311 12.7841L26.2294 9.44816C25.5865 8.86878 25.9332 7.80167 26.7939 7.71083L31.7494 7.1878C32.1044 7.15034 32.4125 6.92649 32.5578 6.60046L34.5866 2.04906Z" fill="#FFA800"/>
<path d="M58.5866 2.04906C58.939 1.25857 60.061 1.25857 60.4134 2.04906L62.4422 6.60046C62.5875 6.92649 62.8956 7.15034 63.2506 7.1878L68.2061 7.71083C69.0668 7.80167 69.4135 8.86877 68.7706 9.44816L65.0689 12.7841C64.8038 13.0231 64.6861 13.3853 64.7601 13.7345L65.7941 18.6091C65.9736 19.4557 65.0659 20.1152 64.3162 19.6828L59.9996 17.1932C59.6904 17.0148 59.3096 17.0148 59.0004 17.1932L54.6838 19.6828C53.9341 20.1152 53.0264 19.4557 53.2059 18.6091L54.2399 13.7345C54.3139 13.3853 54.1962 13.0231 53.9311 12.7841L50.2294 9.44816C49.5865 8.86878 49.9332 7.80167 50.7939 7.71083L55.7494 7.1878C56.1044 7.15034 56.4125 6.92649 56.5578 6.60046L58.5866 2.04906Z" fill="#FFA800"/>
<path d="M82.5866 2.04906C82.939 1.25857 84.061 1.25857 84.4134 2.04906L86.4422 6.60046C86.5875 6.92649 86.8956 7.15034 87.2506 7.1878L92.2061 7.71083C93.0668 7.80167 93.4135 8.86877 92.7706 9.44816L89.0689 12.7841C88.8038 13.0231 88.6861 13.3853 88.7601 13.7345L89.7941 18.6091C89.9736 19.4557 89.0659 20.1152 88.3162 19.6828L83.9996 17.1932C83.6904 17.0148 83.3096 17.0148 83.0004 17.1932L78.6838 19.6828C77.9341 20.1152 77.0264 19.4557 77.2059 18.6091L78.2399 13.7345C78.3139 13.3853 78.1962 13.0231 77.9311 12.7841L74.2294 9.44816C73.5865 8.86878 73.9332 7.80167 74.7939 7.71083L79.7494 7.1878C80.1044 7.15034 80.4125 6.92649 80.5578 6.60046L82.5866 2.04906Z" fill="#FFA800"/>
<path d="M107.272 2.35441C107.36 2.15679 107.64 2.15679 107.728 2.35441L109.757 6.90581C110.011 7.47636 110.551 7.86809 111.172 7.93366L116.127 8.45669C116.343 8.4794 116.429 8.74618 116.269 8.89102L112.567 12.227C112.103 12.6452 111.897 13.279 112.026 13.8901L113.06 18.7647C113.105 18.9764 112.878 19.1413 112.691 19.0332L108.374 16.5435C107.833 16.2314 107.167 16.2314 106.626 16.5435L102.309 19.0332C102.122 19.1413 101.895 18.9764 101.94 18.7647L102.974 13.8901C103.103 13.279 102.897 12.6452 102.433 12.227L98.7315 8.89102C98.5707 8.74618 98.6574 8.4794 98.8726 8.45669L103.828 7.93366C104.449 7.86809 104.989 7.47636 105.243 6.90581L107.272 2.35441Z" stroke="#FFA800" stroke-width="1.5"/>
</svg>
