<?xml version="1.0" encoding="UTF-8"?>
<svg width="62px" height="62px" viewBox="0 0 62 62" xmlns="http://www.w3.org/2000/svg" xmlns:xlink="http://www.w3.org/1999/xlink" version="1.1">
 <!-- Generated by Pixelmator Pro 1.8 -->
 <path id="Path" d="M30.949 2 C46.965 1.972 59.972 14.933 60 30.949 60.028 46.965 47.067 59.972 31.051 60 15.035 60.028 2.028 47.067 2 31.051 1.972 15.035 14.933 2.028 30.949 2 Z" fill="none" stroke="#5845cf" stroke-width="2" stroke-opacity="1" stroke-linejoin="round"/>
 <path id="Path-1" d="M29.735 22.252 L29.761 37.077 24.303 32.549 C24.047 32.338 23.718 32.236 23.387 32.267 23.057 32.298 22.752 32.459 22.541 32.715 22.329 32.971 22.227 33.3 22.258 33.63 22.289 33.961 22.451 34.265 22.706 34.477 L30.217 40.714 C30.277 40.756 30.34 40.793 30.405 40.826 30.467 40.826 30.505 40.826 30.568 40.913 30.711 40.97 30.864 40.999 31.018 41 31.172 40.999 31.324 40.969 31.468 40.912 31.53 40.912 31.568 40.912 31.63 40.824 31.695 40.791 31.758 40.753 31.817 40.711 L39.306 34.448 C39.447 34.33 39.56 34.183 39.638 34.016 39.715 33.85 39.755 33.668 39.754 33.485 39.755 33.193 39.652 32.91 39.466 32.685 39.36 32.559 39.231 32.454 39.086 32.378 38.94 32.301 38.781 32.255 38.617 32.24 38.453 32.225 38.288 32.242 38.131 32.292 37.975 32.341 37.829 32.42 37.703 32.526 L32.261 37.073 32.235 22.248 C32.234 21.916 32.102 21.599 31.867 21.365 31.632 21.131 31.314 20.999 30.983 21 30.651 21.001 30.333 21.133 30.099 21.368 29.865 21.602 29.734 21.921 29.735 22.252 Z" fill="#5845cf" fill-opacity="1" stroke="none"/>
</svg>
