<svg width="32" height="32" viewBox="0 0 32 32" fill="none" xmlns="http://www.w3.org/2000/svg">
<g opacity="0.86">
<path d="M16 0C20.3472 0 20.8896 0.0159999 22.5952 0.0959999C24.2992 0.176 25.4592 0.4432 26.48 0.84C27.536 1.2464 28.4256 1.7968 29.3152 2.6848C30.1288 3.48463 30.7583 4.45214 31.16 5.52C31.5552 6.5392 31.824 7.7008 31.904 9.4048C31.9792 11.1104 32 11.6528 32 16C32 20.3472 31.984 20.8896 31.904 22.5952C31.824 24.2992 31.5552 25.4592 31.16 26.48C30.7595 27.5484 30.1298 28.5162 29.3152 29.3152C28.5151 30.1285 27.5477 30.758 26.48 31.16C25.4608 31.5552 24.2992 31.824 22.5952 31.904C20.8896 31.9792 20.3472 32 16 32C11.6528 32 11.1104 31.984 9.4048 31.904C7.7008 31.824 6.5408 31.5552 5.52 31.16C4.45172 30.7592 3.48404 30.1295 2.6848 29.3152C1.87105 28.5155 1.24149 27.548 0.84 26.48C0.4432 25.4608 0.176 24.2992 0.0959999 22.5952C0.0207999 20.8896 0 20.3472 0 16C0 11.6528 0.0159999 11.1104 0.0959999 9.4048C0.176 7.6992 0.4432 6.5408 0.84 5.52C1.24038 4.45149 1.87009 3.48371 2.6848 2.6848C3.48427 1.87077 4.45189 1.24117 5.52 0.84C6.5408 0.4432 7.6992 0.176 9.4048 0.0959999C11.1104 0.0207999 11.6528 0 16 0ZM16 8C13.8783 8 11.8434 8.84285 10.3431 10.3431C8.84285 11.8434 8 13.8783 8 16C8 18.1217 8.84285 20.1566 10.3431 21.6569C11.8434 23.1571 13.8783 24 16 24C18.1217 24 20.1566 23.1571 21.6569 21.6569C23.1571 20.1566 24 18.1217 24 16C24 13.8783 23.1571 11.8434 21.6569 10.3431C20.1566 8.84285 18.1217 8 16 8ZM26.4 7.6C26.4 7.06957 26.1893 6.56086 25.8142 6.18579C25.4391 5.81071 24.9304 5.6 24.4 5.6C23.8696 5.6 23.3609 5.81071 22.9858 6.18579C22.6107 6.56086 22.4 7.06957 22.4 7.6C22.4 8.13043 22.6107 8.63914 22.9858 9.01421C23.3609 9.38929 23.8696 9.6 24.4 9.6C24.9304 9.6 25.4391 9.38929 25.8142 9.01421C26.1893 8.63914 26.4 8.13043 26.4 7.6ZM16 11.2C17.273 11.2 18.4939 11.7057 19.3941 12.6059C20.2943 13.5061 20.8 14.727 20.8 16C20.8 17.273 20.2943 18.4939 19.3941 19.3941C18.4939 20.2943 17.273 20.8 16 20.8C14.727 20.8 13.5061 20.2943 12.6059 19.3941C11.7057 18.4939 11.2 17.273 11.2 16C11.2 14.727 11.7057 13.5061 12.6059 12.6059C13.5061 11.7057 14.727 11.2 16 11.2Z" fill="white"/>
</g>
</svg>
