<?xml version="1.0" encoding="UTF-8"?>
<svg width="69px" height="56px" viewBox="0 0 69 56" xmlns="http://www.w3.org/2000/svg" xmlns:xlink="http://www.w3.org/1999/xlink" version="1.1">
 <!-- Generated by Pixelmator Pro 1.8 -->
 <path id="Path" d="M42.056 4.524 C42.479 4.664 42.87 4.887 43.207 5.179 43.544 5.471 43.82 5.827 44.02 6.226 44.219 6.625 44.338 7.059 44.37 7.504 44.402 7.949 44.346 8.395 44.205 8.818 L30.625 49.558 C30.34 50.412 29.728 51.119 28.923 51.522 28.117 51.925 27.185 51.991 26.33 51.707 25.476 51.422 24.769 50.81 24.366 50.004 23.963 49.199 23.897 48.266 24.181 47.412 L37.761 6.673 C37.902 6.25 38.125 5.858 38.417 5.521 38.709 5.184 39.064 4.908 39.463 4.708 39.862 4.509 40.296 4.39 40.741 4.358 41.186 4.326 41.632 4.383 42.056 4.524 Z M19.618 15.53 C20.255 16.167 20.612 17.03 20.612 17.93 20.612 18.831 20.255 19.694 19.618 20.331 L11.834 28.115 19.618 35.9 C19.943 36.213 20.201 36.588 20.379 37.002 20.557 37.416 20.651 37.861 20.655 38.312 20.659 38.763 20.573 39.21 20.402 39.627 20.231 40.044 19.979 40.424 19.66 40.742 19.342 41.061 18.963 41.313 18.545 41.484 18.128 41.655 17.681 41.74 17.23 41.736 16.78 41.733 16.334 41.639 15.92 41.461 15.506 41.283 15.131 41.024 14.818 40.7 L4.633 30.515 C3.997 29.879 3.639 29.015 3.639 28.115 3.639 27.215 3.997 26.352 4.633 25.715 L14.818 15.53 C15.455 14.894 16.318 14.536 17.218 14.536 18.118 14.536 18.982 14.894 19.618 15.53 Z M48.767 15.53 C49.404 14.894 50.267 14.536 51.168 14.536 52.068 14.536 52.931 14.894 53.568 15.53 L63.753 25.715 C64.389 26.352 64.747 27.215 64.747 28.115 64.747 29.015 64.389 29.879 63.753 30.515 L53.568 40.7 C53.255 41.025 52.88 41.283 52.466 41.461 52.052 41.639 51.606 41.733 51.155 41.736 50.705 41.741 50.258 41.655 49.84 41.484 49.423 41.313 49.044 41.061 48.725 40.742 48.407 40.424 48.154 40.044 47.984 39.627 47.813 39.21 47.727 38.763 47.731 38.312 47.735 37.861 47.829 37.416 48.007 37.002 48.184 36.588 48.443 36.213 48.767 35.9 L56.552 28.115 48.767 20.331 C48.131 19.694 47.773 18.831 47.773 17.93 47.773 17.03 48.131 16.167 48.767 15.53 Z" fill="#5845cf" fill-opacity="1" stroke="none"/>
</svg>
