<?xml version="1.0" encoding="UTF-8"?>
<svg width="53px" height="56px" viewBox="0 0 53 56" xmlns="http://www.w3.org/2000/svg" xmlns:xlink="http://www.w3.org/1999/xlink" version="1.1">
 <!-- Generated by Pixelmator Pro 1.8 -->
 <path id="Path" d="M5.959 22.792 C5.521 24.499 5.3 26.254 5.301 28.015 5.301 29.817 5.531 31.567 5.959 33.238 L13.397 33.238 C13.045 29.765 13.045 26.265 13.397 22.792 Z M8.095 17.569 L14.222 17.569 C14.917 14.391 15.919 11.545 17.149 9.176 13.358 11.002 10.203 13.927 8.095 17.569 Z M46.427 22.792 L38.989 22.792 C39.341 26.265 39.341 29.765 38.989 33.238 L46.427 33.238 C47.306 29.812 47.306 26.219 46.427 22.792 Z M44.291 17.569 C42.183 13.927 39.028 11.002 35.237 9.176 36.469 11.545 37.469 14.391 38.164 17.569 Z M18.651 22.792 C18.455 24.526 18.358 26.27 18.359 28.015 18.359 29.804 18.458 31.554 18.651 33.238 L33.735 33.238 C34.128 29.767 34.128 26.263 33.735 22.792 Z M19.586 17.569 L32.8 17.569 C32.325 15.606 31.639 13.7 30.755 11.884 29.115 8.607 27.36 7.123 26.193 7.123 25.023 7.123 23.271 8.607 21.631 11.884 20.808 13.535 20.116 15.454 19.586 17.569 Z M8.095 38.461 C10.203 42.104 13.358 45.028 17.149 46.855 15.917 44.486 14.917 41.639 14.222 38.461 Z M44.291 38.461 L38.164 38.461 C37.469 41.639 36.467 44.486 35.237 46.855 39.028 45.028 42.183 42.104 44.291 38.461 Z M19.586 38.461 C20.116 40.577 20.808 42.496 21.631 44.146 23.271 47.424 25.026 48.907 26.193 48.907 27.363 48.907 29.115 47.424 30.755 44.146 31.578 42.496 32.27 40.577 32.8 38.461 Z M26.193 54.13 C11.77 54.13 0.078 42.439 0.078 28.015 0.078 13.592 11.77 1.9 26.193 1.9 40.616 1.9 52.308 13.592 52.308 28.015 52.308 42.439 40.616 54.13 26.193 54.13 Z" fill="#5845cf" fill-opacity="1" stroke="none"/>
</svg>
