<?xml version="1.0" encoding="UTF-8"?>
<svg width="62px" height="62px" viewBox="0 0 62 62" xmlns="http://www.w3.org/2000/svg" xmlns:xlink="http://www.w3.org/1999/xlink" version="1.1">
 <!-- Generated by Pixelmator Pro 1.8 -->
 <g id="group">
  <path id="Path" d="M30.872 1 C47.441 0.928 60.931 14.301 61.003 30.869 61.075 47.437 47.703 60.927 31.134 61 14.566 61.072 1.076 47.699 1.004 31.131 0.931 14.563 14.304 1.073 30.872 1 Z" fill="#5845cf" fill-opacity="1" stroke="none"/>
  <path id="Path-1" d="M30.876 2 C46.893 1.93 59.933 14.857 60.003 30.873 60.073 46.889 47.146 59.93 31.13 60 15.114 60.07 2.073 47.143 2.004 31.127 1.934 15.111 14.86 2.07 30.876 2 Z" fill="none" stroke="#5845cf" stroke-width="2" stroke-opacity="1" stroke-linejoin="round"/>
 </g>
 <path id="Path-2" d="M29.792 39.755 L29.727 24.931 24.297 29.492 C24.042 29.705 23.714 29.809 23.383 29.78 23.052 29.751 22.747 29.591 22.533 29.337 22.32 29.083 22.217 28.754 22.246 28.423 22.275 28.093 22.434 27.787 22.688 27.574 L30.161 21.291 C30.22 21.249 30.283 21.211 30.348 21.178 30.41 21.177 30.448 21.177 30.51 21.09 30.653 21.032 30.806 21.002 30.96 21 31.114 21.001 31.266 21.03 31.41 21.086 31.472 21.085 31.51 21.085 31.573 21.172 31.638 21.205 31.701 21.242 31.761 21.284 L39.288 27.501 C39.43 27.618 39.544 27.765 39.622 27.931 39.701 28.097 39.742 28.278 39.742 28.462 39.744 28.754 39.644 29.037 39.458 29.263 39.354 29.39 39.226 29.495 39.08 29.573 38.935 29.65 38.776 29.698 38.613 29.714 38.449 29.729 38.284 29.713 38.127 29.665 37.969 29.617 37.823 29.538 37.697 29.433 L32.227 24.92 32.292 39.744 C32.293 40.076 32.163 40.395 31.929 40.63 31.696 40.865 31.379 40.998 31.047 41 30.716 41.001 30.397 40.871 30.162 40.638 29.926 40.404 29.793 40.087 29.792 39.755 Z" fill="#ffffff" fill-opacity="1" stroke="none"/>
</svg>
