<svg width="599" height="600" viewBox="0 0 599 600" fill="none" xmlns="http://www.w3.org/2000/svg">
<path d="M502.488 110.653C499.044 106.929 495.487 103.289 491.819 99.7885C490.587 98.6124 489.355 97.4363 488.123 96.2883C486.891 95.1402 485.631 93.9922 484.371 92.8721C482.103 90.828 479.778 88.8118 477.426 86.8237C477.118 86.5717 476.838 86.3197 476.53 86.0677C475.27 85.0316 474.01 84.0236 472.75 83.0155C471.434 81.9515 470.09 80.8874 468.746 79.8513C466.478 78.0872 464.153 76.3791 461.829 74.671C459.925 73.2709 457.993 71.8989 456.033 70.5828C454.885 69.7988 453.737 69.0147 452.561 68.2587C452.309 68.0627 452.029 67.8666 451.777 67.7266C450.517 66.8866 449.229 66.0465 447.913 65.2345C445.056 63.4144 442.144 61.6223 439.204 59.9142C437.748 59.0461 436.264 58.2061 434.78 57.366C433.296 56.526 431.784 55.7139 430.3 54.9019C427.275 53.2778 424.223 51.7097 421.171 50.2256C419.631 49.4696 418.091 48.7415 416.523 48.0135C415.151 47.3695 413.779 46.7254 412.379 46.1094C407.338 43.8413 402.214 41.7411 397.034 39.781C395.718 39.277 394.373 38.801 393.029 38.2969C389.641 37.0929 386.253 35.9448 382.837 34.8807C381.773 34.5167 380.709 34.2087 379.617 33.8727C378.133 33.4247 376.62 32.9766 375.108 32.5566C372.924 31.9126 370.712 31.3245 368.472 30.7645C366.568 30.2605 364.636 29.7844 362.704 29.3364C362.648 29.3084 362.592 29.3084 362.536 29.3084C361.416 29.0284 360.324 28.7764 359.203 28.5524C357.523 28.1604 355.815 27.7963 354.135 27.4883C352.847 27.2083 351.559 26.9563 350.243 26.7323C349.235 26.5363 348.227 26.3402 347.191 26.1722C345.455 25.8642 343.719 25.5562 341.954 25.3042C341.17 25.1642 340.358 25.0522 339.546 24.9402C337.922 24.6882 336.298 24.4641 334.674 24.2681C332.126 23.9321 329.606 23.6521 327.058 23.4001C325.013 23.2041 322.969 23.0081 320.925 22.868C320.225 22.784 319.497 22.756 318.797 22.7C317.341 22.588 315.885 22.504 314.401 22.42C313.225 22.364 312.049 22.308 310.873 22.28C310.285 22.224 309.697 22.196 309.081 22.196C307.68 22.14 306.28 22.084 304.88 22.056C302.92 22.028 300.96 22 299 22C297.04 22 295.08 22.028 293.12 22.056C291.72 22.084 290.319 22.14 288.919 22.196C288.303 22.196 287.715 22.224 287.127 22.28C285.951 22.308 284.775 22.364 283.599 22.42C282.031 22.504 280.463 22.616 278.923 22.728C278.363 22.756 277.831 22.784 277.271 22.84C275.143 23.0081 273.043 23.1761 270.942 23.4001C268.394 23.6521 265.846 23.9321 263.326 24.2681C261.618 24.4921 259.91 24.7162 258.23 24.9682C257.502 25.0802 256.774 25.1922 256.018 25.3042C254.253 25.5842 252.517 25.8642 250.781 26.1722C249.857 26.3402 248.905 26.5083 247.981 26.6763C246.553 26.9283 245.125 27.2083 243.697 27.5163C243.165 27.6003 242.633 27.7123 242.129 27.8243C240.841 28.0763 239.553 28.3564 238.264 28.6644C237.284 28.8604 236.276 29.1124 235.296 29.3364C231.124 30.3165 226.98 31.3805 222.892 32.5566C221.324 33.0046 219.755 33.4527 218.187 33.9287C217.179 34.2367 216.143 34.5447 215.135 34.8807C211.719 35.9448 208.303 37.0929 204.943 38.3249C203.823 38.717 202.702 39.137 201.582 39.557C199.986 40.145 198.418 40.7611 196.822 41.3771C195.198 42.0212 193.602 42.6652 191.978 43.3652C191.194 43.6732 190.382 44.0093 189.598 44.3733C188.058 45.0173 186.546 45.6614 185.033 46.3614C183.717 46.9494 182.401 47.5655 181.085 48.1815C179.657 48.8535 178.229 49.5256 176.829 50.2256C173.749 51.7097 170.697 53.2778 167.7 54.9019C166.188 55.7139 164.704 56.526 163.22 57.366C161.764 58.1781 160.308 59.0181 158.88 59.8302C158.712 59.9422 158.544 60.0262 158.404 60.1382C157.06 60.9222 155.716 61.7063 154.372 62.5463C152.076 63.9184 149.835 65.3465 147.623 66.8026C146.475 67.5306 145.355 68.2587 144.235 69.0427C143.815 69.2947 143.395 69.5747 143.003 69.8828C141.351 70.9748 139.699 72.1229 138.075 73.299C136.675 74.279 135.331 75.2591 133.959 76.2951C133.734 76.4351 133.482 76.6311 133.258 76.7992C132.334 77.4712 131.41 78.1712 130.486 78.8993C129.814 79.3753 129.198 79.8793 128.554 80.3834C127.546 81.1394 126.594 81.9234 125.614 82.7075C124.41 83.6315 123.234 84.5836 122.086 85.5637C120.658 86.7117 119.258 87.9158 117.886 89.0919C116.401 90.3519 114.945 91.64 113.517 92.9561C112.509 93.8241 111.529 94.7202 110.549 95.6722C107.805 98.1364 105.145 100.685 102.541 103.345C101.337 104.521 100.133 105.725 98.9845 106.957C97.8084 108.161 96.6603 109.365 95.5403 110.597C95.4563 110.625 95.4283 110.681 95.4283 110.737C94.3642 111.857 93.3002 113.005 92.2921 114.153C89.912 116.729 87.6158 119.39 85.4037 122.078C84.4797 123.198 83.5556 124.318 82.6315 125.466C81.2875 127.062 79.9994 128.714 78.7393 130.394C76.9192 132.746 75.1551 135.127 73.419 137.535C70.2548 141.875 67.2587 146.299 64.3745 150.835C62.6384 153.58 60.9583 156.324 59.3062 159.124C59.1382 159.348 58.9982 159.6 58.8582 159.88C58.0741 161.252 57.2901 162.624 56.506 163.996C55.666 165.48 54.8539 166.964 54.0419 168.476C53.2299 169.961 52.4178 171.473 51.6618 173.013C50.8777 174.525 50.0937 176.065 49.3656 177.605C48.6936 178.949 48.0216 180.321 47.3775 181.693C47.1255 182.169 46.9015 182.645 46.7055 183.149C46.1174 184.381 45.5574 185.641 44.9974 186.901C43.4853 190.206 42.0852 193.566 40.7411 196.954C40.0131 198.746 39.3131 200.566 38.641 202.386C38.025 203.982 37.4649 205.551 36.9049 207.147C36.5969 207.987 36.2889 208.827 36.0369 209.667C35.5048 211.123 35.0288 212.607 34.5528 214.091C34.4688 214.315 34.3848 214.539 34.3288 214.791C33.7967 216.387 33.2927 218.011 32.8167 219.607C32.5367 220.503 32.2566 221.399 32.0326 222.296C31.6686 223.472 31.3326 224.648 31.0246 225.852C30.8006 226.58 30.6046 227.308 30.4365 228.064C29.9325 229.828 29.4845 231.592 29.0645 233.384C28.5324 235.484 28.0284 237.612 27.5804 239.741C27.1044 241.897 26.6563 244.025 26.2363 246.181C25.8163 248.365 25.3963 250.549 25.0322 252.733C24.6402 254.917 24.3042 257.13 23.9682 259.342C23.6602 261.442 23.3801 263.57 23.1001 265.726C23.0441 266.006 23.0161 266.314 22.9881 266.65C22.7641 268.638 22.5401 270.682 22.3441 272.698C22.1201 274.911 21.9241 277.123 21.756 279.335C21.252 286.167 21 293.056 21 300C21 302.24 21.028 304.48 21.084 306.72C21.112 307.756 21.14 308.821 21.196 309.857C21.224 311.341 21.28 312.825 21.364 314.309C21.476 316.549 21.616 318.817 21.784 321.057C21.9241 323.017 22.0921 324.949 22.2881 326.882C22.4281 328.422 22.5961 329.962 22.7921 331.474C22.8481 332.342 22.9601 333.182 23.0721 334.022C23.2961 335.898 23.5481 337.746 23.8282 339.594C24.4442 343.907 25.1722 348.191 25.9843 352.447C26.3763 354.463 26.7683 356.451 27.1884 358.439C30.6046 374.372 35.3928 389.801 41.3852 404.586C42.8973 408.282 44.4653 411.95 46.1174 415.563C47.7695 419.175 49.5056 422.759 51.2977 426.287C51.3257 426.371 51.3818 426.455 51.4098 426.539C53.1739 429.927 54.966 433.232 56.8141 436.536C56.8421 436.676 56.9261 436.788 56.9821 436.872C57.9621 438.552 58.9142 440.232 59.9222 441.884C60.9303 443.592 61.9384 445.272 63.0024 446.952C63.8705 448.381 64.7945 449.781 65.6906 451.209C67.0626 453.337 68.4627 455.409 69.9188 457.481C70.8709 458.881 71.8509 460.281 72.859 461.681C75.0431 464.733 77.2832 467.73 79.5794 470.67C80.8674 472.378 82.2115 474.086 83.6116 475.738C84.3956 476.718 85.2077 477.698 86.0477 478.678C86.7198 479.518 87.4478 480.358 88.1479 481.17C89.1559 482.374 90.192 483.551 91.256 484.699C92.3481 485.931 93.4402 487.135 94.5322 488.339C96.4643 490.439 98.3964 492.511 100.441 494.527C101.393 495.535 102.401 496.543 103.409 497.523C110.521 504.608 117.998 511.272 125.866 517.488C127.098 518.497 128.33 519.477 129.59 520.429C129.898 520.681 130.234 520.933 130.57 521.157C131.55 521.941 132.53 522.669 133.538 523.397C135.023 524.517 136.535 525.637 138.075 526.701C139.699 527.877 141.351 529.025 143.003 530.117C148.351 533.785 153.868 537.258 159.496 540.506C161.204 541.486 162.912 542.466 164.648 543.418C166.384 544.398 168.12 545.322 169.885 546.246C171.481 547.086 173.105 547.926 174.757 548.738C175.093 548.934 175.429 549.102 175.765 549.242C177.109 549.914 178.453 550.586 179.825 551.23C182.289 552.407 184.781 553.555 187.302 554.619C190.494 556.047 193.714 557.391 196.99 558.679C202.786 560.975 208.667 563.075 214.631 564.951C216.171 565.455 217.739 565.931 219.307 566.407C220.707 566.827 222.108 567.219 223.508 567.611C225.496 568.199 227.512 568.731 229.528 569.235C231.292 569.712 233.084 570.16 234.876 570.552C241.793 572.204 248.849 573.576 255.962 574.696C257.418 574.92 258.902 575.144 260.358 575.312C260.918 575.424 261.45 575.48 262.01 575.536C263.018 575.704 264.026 575.816 265.034 575.928C266.518 576.124 268.002 576.292 269.486 576.432C270.354 576.544 271.222 576.628 272.09 576.712C273.267 576.824 274.471 576.936 275.675 577.02C276.879 577.132 278.083 577.216 279.287 577.3C281.331 577.468 283.375 577.58 285.419 577.664C286.483 577.72 287.547 577.776 288.611 577.776C289.955 577.86 291.3 577.888 292.672 577.916C294.772 577.972 296.872 578 299 578C301.128 578 303.228 577.972 305.328 577.916C306.7 577.888 308.045 577.86 309.389 577.776C310.453 577.776 311.517 577.72 312.581 577.664C314.625 577.58 316.669 577.468 318.713 577.3C319.917 577.216 321.121 577.132 322.325 577.02C323.529 576.936 324.733 576.824 325.91 576.712C326.778 576.628 327.646 576.544 328.514 576.432C329.998 576.292 331.482 576.124 332.966 575.928C333.974 575.816 334.982 575.704 335.99 575.536C336.522 575.48 337.082 575.424 337.642 575.312C339.098 575.144 340.582 574.92 342.038 574.696C349.151 573.576 356.179 572.204 363.124 570.552C364.916 570.16 366.708 569.712 368.472 569.235C370.488 568.731 372.504 568.199 374.492 567.611C375.892 567.219 377.293 566.827 378.693 566.407C380.261 565.931 381.801 565.455 383.369 564.951C389.333 563.075 395.214 560.975 401.01 558.679C404.286 557.391 407.506 556.047 410.698 554.619C413.191 553.555 415.683 552.407 418.175 551.23C419.519 550.586 420.891 549.914 422.235 549.242C422.571 549.102 422.907 548.934 423.243 548.738C424.867 547.926 426.491 547.086 428.115 546.246C429.88 545.322 431.616 544.398 433.352 543.418C435.088 542.466 436.796 541.486 438.504 540.506C444.132 537.258 449.621 533.785 454.997 530.117C456.621 529.053 458.217 527.933 459.785 526.785C461.129 525.861 462.445 524.909 463.761 523.901C465.162 522.893 466.562 521.829 467.934 520.765C469.502 519.561 471.042 518.357 472.582 517.125C474.122 515.892 475.634 514.66 477.146 513.4C478.658 512.14 480.142 510.852 481.626 509.564C484.595 506.988 487.507 504.328 490.335 501.64C493.191 498.923 495.991 496.179 498.708 493.351C500.08 491.923 501.424 490.495 502.768 489.067C505.428 486.211 508.004 483.299 510.552 480.33C510.636 480.274 510.692 480.19 510.748 480.106C511.98 478.65 513.184 477.194 514.388 475.738C518.113 471.174 521.697 466.47 525.141 461.681C526.121 460.281 527.101 458.881 528.081 457.481C528.333 457.173 528.529 456.865 528.697 456.557C529.761 455.017 530.797 453.477 531.805 451.937C532.897 450.285 533.933 448.605 534.998 446.952C536.034 445.272 537.07 443.592 538.078 441.884C554.207 414.723 565.855 384.565 571.988 352.447C572.016 352.307 572.044 352.139 572.072 351.999C573.276 345.755 574.256 339.482 575.012 333.126C575.516 328.786 575.936 324.389 576.272 319.993C576.412 317.809 576.552 315.597 576.664 313.385C576.888 308.961 577 304.48 577 300C577 281.575 575.208 263.598 571.792 246.181H438.952M461.353 246.181H410.698L308.745 351.999H461.941C461.885 352.139 461.857 352.307 461.801 352.447C439.68 421.247 375.164 471.034 299 471.034C204.523 471.034 127.966 394.449 127.966 300C127.966 205.551 204.523 128.966 299 128.966C343.131 128.966 383.369 145.683 413.695 173.153" stroke="#A864F4" stroke-width="42.0024" stroke-miterlimit="10"/>
<path d="M420.107 421.135L495.515 496.543C495.431 496.655 495.347 496.739 495.235 496.851C495.207 496.879 495.179 496.907 495.151 496.935C494.955 497.159 494.759 497.327 494.563 497.523C487.451 504.608 479.946 511.272 472.106 517.489C470.874 518.497 469.642 519.477 468.382 520.429C468.046 520.681 467.738 520.933 467.402 521.157C466.422 521.941 465.442 522.669 464.434 523.397C462.949 524.517 461.437 525.637 459.897 526.701C458.273 527.877 456.621 529.025 454.969 530.117C449.593 533.785 444.104 537.258 438.476 540.506C436.768 541.486 435.06 542.466 433.324 543.418C431.812 544.286 430.272 545.098 428.731 545.91C428.255 546.19 427.751 546.442 427.275 546.666C426.239 547.226 425.175 547.758 424.139 548.29C423.187 548.766 422.235 549.242 421.283 549.69C420.275 550.194 419.267 550.698 418.259 551.174C416.579 551.986 414.899 552.743 413.219 553.527C411.987 554.087 410.754 554.619 409.522 555.151C408.542 555.571 407.534 555.991 406.554 556.411C402.214 558.259 397.818 559.967 393.365 561.563C391.629 562.207 389.893 562.795 388.157 563.383C386.421 563.971 384.685 564.559 382.949 565.091C381.745 565.483 380.541 565.847 379.365 566.183C377.881 566.659 376.396 567.079 374.912 567.499C372.784 568.115 370.628 568.703 368.444 569.235C366.596 569.739 364.72 570.188 362.844 570.608C360.24 571.252 357.635 571.812 355.003 572.344C352.903 572.792 350.775 573.184 348.647 573.576C347.975 573.688 347.303 573.828 346.631 573.912C345.035 574.22 343.439 574.472 341.842 574.724C338.958 575.172 336.046 575.564 333.134 575.9C331.538 576.124 329.942 576.292 328.318 576.46C327.59 576.544 326.862 576.628 326.106 576.684C324.79 576.824 323.445 576.936 322.101 577.048C321.009 577.132 319.917 577.216 318.825 577.272C316.781 577.44 314.709 577.58 312.637 577.664C311.517 577.72 310.397 577.776 309.249 577.804C307.961 577.86 306.644 577.888 305.328 577.916C303.228 577.972 301.1 578 298.972 578C296.872 578 294.772 577.972 292.672 577.916C291.272 577.888 289.871 577.86 288.471 577.776C287.463 577.776 286.455 577.72 285.475 577.664C284.243 577.608 282.983 577.552 281.751 577.44C280.967 577.44 280.211 577.384 279.427 577.3C278.111 577.216 276.795 577.132 275.479 576.992C274.415 576.936 273.351 576.852 272.314 576.74C271.306 576.628 270.298 576.544 269.29 576.432C267.946 576.292 266.63 576.152 265.314 575.956C264.082 575.844 262.878 575.676 261.646 575.508C261.506 575.508 261.366 575.48 261.198 575.424C259.406 575.2 257.586 574.948 255.794 574.668C254.981 574.528 254.197 574.416 253.385 574.276C252.041 574.052 250.697 573.828 249.353 573.576C245.265 572.848 241.177 572.008 237.144 571.084C236.164 570.86 235.156 570.636 234.176 570.384C232.664 570.048 231.152 569.684 229.64 569.263C229.5 569.263 229.388 569.207 229.248 569.179C227.456 568.731 225.692 568.255 223.928 567.723C222.528 567.359 221.128 566.939 219.727 566.519C217.879 565.987 216.031 565.427 214.211 564.839C211.943 564.111 209.675 563.355 207.407 562.543C205.783 561.983 204.187 561.423 202.59 560.835C200.714 560.135 198.866 559.435 196.99 558.679C193.322 557.223 189.682 555.711 186.098 554.115C186.014 554.087 185.957 554.059 185.873 554.031C184.165 553.247 182.485 552.491 180.805 551.678C180.693 551.65 180.581 551.594 180.441 551.51C178.677 550.698 176.913 549.83 175.177 548.962C173.385 548.066 171.621 547.17 169.885 546.246C167.252 544.874 164.648 543.474 162.044 541.99C159.468 540.506 156.92 539.022 154.4 537.482C152.72 536.474 151.039 535.438 149.387 534.345C147.707 533.281 146.055 532.189 144.431 531.097C143.283 530.341 142.163 529.557 141.043 528.773C138.747 527.233 136.479 525.609 134.211 523.901C132.81 522.893 131.41 521.829 130.038 520.765C128.47 519.561 126.93 518.357 125.39 517.125C123.85 515.892 122.338 514.66 120.826 513.4C119.314 512.14 117.83 510.852 116.345 509.564C113.377 506.988 110.493 504.328 107.637 501.64C104.781 498.979 101.981 496.179 99.2645 493.351C97.8924 491.923 96.5484 490.495 95.2043 489.067C94.0282 487.807 92.8801 486.547 91.7321 485.259C89.744 483.019 87.7838 480.722 85.8237 478.426C85.5437 478.118 85.2637 477.782 85.0117 477.446C83.9196 476.102 82.8276 474.786 81.7635 473.442C80.6994 472.098 79.6354 470.726 78.5713 469.382C75.4351 465.294 72.383 461.093 69.4708 456.837C68.3507 455.213 67.2587 453.589 66.1666 451.937C65.5226 450.957 64.9065 449.977 64.2905 448.997C62.8344 446.728 61.4343 444.46 60.0903 442.164C58.8862 440.148 57.7101 438.132 56.5621 436.088C56.45 435.892 56.338 435.668 56.226 435.472C56.002 435.108 55.806 434.744 55.61 434.352C55.414 433.988 55.218 433.652 55.022 433.288C54.3779 432.14 53.7619 430.992 53.1459 429.843C53.0058 429.563 52.8378 429.255 52.6978 428.975C52.6698 428.947 52.6698 428.919 52.6418 428.863C51.3537 426.399 50.0937 423.907 48.8896 421.387C47.8535 419.343 46.9015 417.271 45.9494 415.199C45.9214 415.115 45.8654 415.031 45.8374 414.947C45.2214 413.575 44.6054 412.174 43.9893 410.802C42.1972 406.686 40.5171 402.542 38.921 398.314C34.1608 385.685 30.2685 372.608 27.3564 359.195C26.8803 356.955 26.4043 354.715 25.9843 352.447C25.6763 350.879 25.3963 349.339 25.1442 347.771C24.8362 346.119 24.5562 344.467 24.3042 342.814C24.0522 341.218 23.8282 339.594 23.6042 337.998C23.3521 336.374 23.1561 334.75 22.9601 333.126C22.4561 328.786 22.0361 324.389 21.7 319.993C21.56 317.809 21.42 315.597 21.308 313.385C21.112 308.933 21 304.48 21 300C21 298.124 21.028 296.248 21.056 294.372C21.084 294.176 21.084 294.008 21.084 293.812V293.028C21.14 290.927 21.224 288.855 21.308 286.783C21.336 286.419 21.364 286.055 21.364 285.691C21.476 283.563 21.616 281.435 21.756 279.335C21.8961 277.403 22.0641 275.499 22.2601 273.566C22.2881 273.146 22.3161 272.754 22.3721 272.362C22.5401 270.71 22.7081 269.058 22.9041 267.434C22.9601 266.734 23.0441 266.034 23.1561 265.334C23.4081 263.402 23.6602 261.47 23.9402 259.566C23.9402 259.454 23.9402 259.314 23.9962 259.202C24.3042 257.018 24.6682 254.889 25.0322 252.733C25.3963 250.577 25.7883 248.421 26.2083 246.293C26.8243 243.017 27.5244 239.769 28.3084 236.548C28.6724 234.952 29.0365 233.384 29.4565 231.788C29.8485 230.192 30.2685 228.624 30.6886 227.056C31.2486 224.956 31.8366 222.884 32.4527 220.783C33.6567 216.639 34.9728 212.523 36.4289 208.463C37.857 204.402 39.3691 200.37 40.9652 196.394C42.8973 191.606 44.9414 186.873 47.1255 182.225C47.8535 180.685 48.5816 179.117 49.3376 177.577C52.3898 171.445 55.61 165.424 59.0542 159.544C60.7903 156.604 62.5544 153.692 64.4025 150.835C65.2986 149.407 66.2226 147.979 67.1747 146.551C68.0987 145.151 69.0508 143.751 70.0308 142.351C70.9829 140.951 71.9629 139.551 72.943 138.179C74.9311 135.407 76.9472 132.69 79.0473 130.002C80.0834 128.658 81.1195 127.342 82.1835 126.026C85.3757 122.05 88.6519 118.186 92.0401 114.405C93.1882 113.145 94.3362 111.885 95.4843 110.653C97.1924 108.777 98.9565 106.957 100.721 105.137C102.513 103.317 104.305 101.553 106.153 99.7885C107.385 98.6124 108.617 97.4363 109.849 96.2883C111.081 95.1402 112.341 93.9921 113.601 92.8721C115.869 90.828 118.194 88.8118 120.546 86.8237C120.854 86.5717 121.134 86.3197 121.442 86.0677C122.702 85.0316 123.962 84.0236 125.222 83.0155C126.538 81.9515 127.882 80.8874 129.226 79.8513C131.494 78.0872 133.818 76.3791 136.143 74.671C138.047 73.2709 139.979 71.8989 141.939 70.5828C143.087 69.7988 144.235 69.0147 145.411 68.2587C145.663 68.0627 145.943 67.8666 146.195 67.7266C147.483 66.8866 148.743 66.0465 150.059 65.2345C152.916 63.3864 155.828 61.6223 158.768 59.9142C160.252 59.0461 161.708 58.2061 163.22 57.366C164.704 56.526 166.188 55.7139 167.7 54.9019C170.697 53.2778 173.749 51.7377 176.829 50.2256C178.369 49.4696 179.909 48.7415 181.449 48.0135C182.821 47.3695 184.221 46.7254 185.593 46.1094C186.322 45.7734 187.078 45.4373 187.806 45.1293C188.814 44.6813 189.85 44.2613 190.858 43.8133C192.454 43.1132 194.05 42.4692 195.646 41.8531C197.242 41.2091 198.838 40.5931 200.462 39.977C202.058 39.361 203.683 38.773 205.307 38.1849C208.555 37.0089 211.859 35.9168 215.135 34.8807C216.339 34.4887 217.543 34.1247 218.719 33.7887C219.867 33.3967 221.044 33.0606 222.22 32.7526C222.612 32.6126 222.976 32.5006 223.368 32.4166C225.384 31.8286 227.428 31.2685 229.5 30.7645C231.236 30.3165 232.972 29.8685 234.736 29.4764C234.932 29.4204 235.1 29.3644 235.296 29.3364C236.752 29.0004 238.181 28.6644 239.637 28.3564C240.113 28.2444 240.589 28.1324 241.065 28.0483C242.129 27.8243 243.193 27.6003 244.257 27.4043C245.237 27.1803 246.245 26.9843 247.253 26.8163C248.429 26.5923 249.605 26.3683 250.809 26.1722C252.545 25.8642 254.281 25.5562 256.046 25.3042C256.942 25.1642 257.866 25.0242 258.79 24.8842C260.218 24.6882 261.646 24.4921 263.074 24.2961C265.734 23.9601 268.394 23.6521 271.054 23.3721C272.847 23.2041 274.667 23.0361 276.487 22.8961C278.811 22.7 281.163 22.56 283.515 22.448C284.775 22.364 286.035 22.308 287.267 22.252C287.771 22.224 288.275 22.196 288.807 22.196C290.264 22.14 291.692 22.084 293.148 22.056C295.08 22.028 297.012 22 298.972 22C300.96 22 302.948 22.028 304.908 22.056C306.252 22.084 307.597 22.14 308.941 22.196C309.641 22.196 310.341 22.224 311.041 22.28C312.105 22.308 313.197 22.364 314.289 22.42C315.941 22.504 317.565 22.616 319.189 22.728C319.693 22.756 320.197 22.784 320.701 22.84C322.857 23.0081 325.014 23.2041 327.142 23.4001C327.562 23.4561 327.982 23.4841 328.402 23.5401C330.362 23.7361 332.322 23.9601 334.282 24.2401C334.31 24.2121 334.366 24.2401 334.422 24.2401C336.242 24.4641 338.062 24.7162 339.882 24.9962C340.582 25.0802 341.282 25.1922 341.955 25.3042C344.559 25.6962 347.163 26.1442 349.739 26.6483C351.363 26.9283 352.959 27.2363 354.555 27.5723C354.919 27.6283 355.255 27.7123 355.619 27.7963C357.103 28.0763 358.587 28.4124 360.072 28.7484C360.94 28.9444 361.808 29.1404 362.704 29.3364C366.876 30.3165 370.992 31.3805 375.08 32.5566C376.76 33.0326 378.441 33.5087 380.121 34.0407C381.045 34.2927 381.941 34.5727 382.837 34.8807C383.229 34.9927 383.649 35.1328 384.041 35.2728C385.413 35.6928 386.785 36.1408 388.157 36.6168C389.921 37.2049 391.713 37.8489 393.505 38.4929C394.402 38.801 395.326 39.137 396.222 39.501C397.874 40.089 399.498 40.7331 401.15 41.3771C403.138 42.1612 405.154 42.9732 407.142 43.8133C407.142 43.8413 407.17 43.8413 407.198 43.8413C409.13 44.6533 411.034 45.4934 412.939 46.3614C414.283 46.9774 415.627 47.5935 416.971 48.2375C418.231 48.7975 419.463 49.3856 420.695 50.0016C425.763 52.4658 430.748 55.0979 435.648 57.8701C436.796 58.5141 437.944 59.1581 439.064 59.8302C439.232 59.9142 439.4 60.0262 439.568 60.1382C440.912 60.9222 442.256 61.7063 443.6 62.5463C445.868 63.9184 448.109 65.3465 450.349 66.8026C451.497 67.5306 452.617 68.2587 453.737 69.0427C454.157 69.2947 454.549 69.5747 454.969 69.8828C456.621 70.9748 458.273 72.1229 459.897 73.299C461.297 74.279 462.641 75.2591 464.014 76.2951C464.882 76.9112 465.75 77.5552 466.618 78.2272C467.794 79.0953 468.942 79.9913 470.09 80.8874C472.05 82.3995 473.982 83.9676 475.886 85.5637C477.314 86.7117 478.714 87.9158 480.086 89.0919C480.786 89.6799 481.459 90.2679 482.131 90.884C483.279 91.892 484.455 92.9001 485.575 93.9361C485.799 94.1321 486.023 94.3282 486.219 94.5242C487.759 95.9243 489.243 97.3243 490.755 98.7524C490.755 98.7524 490.783 98.7804 490.811 98.8084C492.379 100.293 493.919 101.805 495.459 103.345C495.487 103.373 495.515 103.401 495.543 103.429L420.107 178.893C389.109 147.895 346.295 128.714 299 128.714C243.305 128.714 193.854 155.288 162.576 196.394C151.264 211.263 142.303 228.036 136.339 246.181C130.71 263.094 127.686 281.183 127.686 300C127.686 318.313 130.57 335.926 135.863 352.447C158.04 421.415 222.696 471.286 299 471.286C346.295 471.286 389.109 452.105 420.107 421.135Z" stroke="white" stroke-width="42.0024" stroke-miterlimit="10"/>
</svg>
